<?xml version="1.0"?>
<svg width="455.838" height="455.838" xmlns="http://www.w3.org/2000/svg" xmlns:svg="http://www.w3.org/2000/svg" enable-background="new 0 0 455.838 455.838" version="1.1" xml:space="preserve">
 <g class="layer">
  <title>Layer 1</title>
  <g id="svg_1">
   <g id="svg_2">
    <path d="m454.97,160.67c-0.18,-0.26 -0.38,-0.5 -0.6,-0.72c-60.49,-60.49 -140.91,-93.8 -226.45,-93.8c-85.54,0 -165.95,33.3 -226.44,93.79c-0.94,0.93 -1.48,2.21 -1.48,3.55c0,1.32 0.53,2.6 1.47,3.53l33.11,33.12c0.94,0.93 2.21,1.46 3.53,1.46c1.33,0 2.6,-0.53 3.54,-1.46c49.83,-49.84 115.99,-77.29 186.27,-77.29c70.28,0 136.43,27.45 186.27,77.29c0.94,0.93 2.21,1.46 3.53,1.46c1.33,0 2.6,-0.53 3.54,-1.46l33.11,-33.12c0.94,-0.94 1.47,-2.21 1.47,-3.53c0,-1.01 -0.31,-1.99 -0.87,-2.82z" fill="#ff0000" id="svg_3"/>
    <path d="m227.92,153.72c-62.06,0 -120.46,24.23 -164.46,68.23c-1.95,1.95 -1.95,5.12 0,7.07l33.01,33.01c0.94,0.94 2.21,1.46 3.54,1.46c1.32,0 2.6,-0.52 3.53,-1.46c33.28,-33.28 77.45,-51.61 124.38,-51.61c46.93,0 91.1,18.33 124.37,51.61c0.94,0.94 2.21,1.46 3.54,1.46s2.6,-0.52 3.54,-1.46l33.01,-33.01c0.93,-0.94 1.46,-2.21 1.46,-3.54c0,-1.32 -0.52,-2.6 -1.46,-3.53c-44,-44 -102.4,-68.23 -164.46,-68.23z" fill="#ff0000" id="svg_4"/>
    <path d="m227.92,241.29c-38.7,0 -75.13,15.11 -102.56,42.55c-0.94,0.94 -1.47,2.21 -1.47,3.54c0,1.32 0.53,2.6 1.47,3.53l33.01,33.01c0.93,0.94 2.2,1.47 3.53,1.47s2.6,-0.53 3.54,-1.47c16.71,-16.72 38.9,-25.92 62.48,-25.92s45.77,9.21 62.48,25.92c0.94,0.94 2.21,1.47 3.54,1.47s2.6,-0.53 3.53,-1.47l33.01,-33.01c1.96,-1.95 1.96,-5.12 0,-7.07c-27.43,-27.44 -63.86,-42.55 -102.56,-42.55z" fill="#ff0000" id="svg_5"/>
    <path d="m227.92,334.08c-13.52,0 -26.23,5.27 -35.78,14.83c-1.96,1.95 -1.96,5.11 0,7.07l32.24,32.25c0.94,0.93 2.21,1.46 3.54,1.46s2.6,-0.53 3.53,-1.46l32.25,-32.25c1.95,-1.96 1.95,-5.12 0,-7.08c-9.55,-9.55 -22.26,-14.82 -35.78,-14.82z" fill="#ff0000" id="svg_6"/>
   </g>
  </g>
  <g id="svg_7"/>
  <g id="svg_8"/>
  <g id="svg_9"/>
  <g id="svg_10"/>
  <g id="svg_11"/>
  <g id="svg_12"/>
  <g id="svg_13"/>
  <g id="svg_14"/>
  <g id="svg_15"/>
  <g id="svg_16"/>
  <g id="svg_17"/>
  <g id="svg_18"/>
  <g id="svg_19"/>
  <g id="svg_20"/>
  <g id="svg_21"/>
 </g>
</svg>