<?xml version="1.0" encoding="utf-8"?>
<!-- Svg Vector Icons : http://www.onlinewebfonts.com/icon -->
<!DOCTYPE svg PUBLIC "-//W3C//DTD SVG 1.1//EN" "http://www.w3.org/Graphics/SVG/1.1/DTD/svg11.dtd">
<svg version="1.1" xmlns="http://www.w3.org/2000/svg" xmlns:xlink="http://www.w3.org/1999/xlink" x="0px" y="0px" viewBox="0 0 256 256" enable-background="new 0 0 256 256" xml:space="preserve">
<metadata> Svg Vector Icons : http://www.onlinewebfonts.com/icon </metadata>
<g><g><path fill="#000000" d="M88.5,133H69.6h-1.1c-1,0-1.8-0.2-2.4-0.6c-0.6-0.4-0.8-0.9-0.8-1.6c0-1.2,0.6-1.9,1.7-2.3c0.9-0.3,1.5-0.5,1.6-0.6c0.1-0.1,0.3-0.2,0.5-0.5c0.3-0.5,0.5-1.2,0.5-2.2V82.9c0-1-0.2-1.7-0.5-2.2c-0.2-0.3-0.3-0.4-0.5-0.5c-0.2-0.1-0.7-0.3-1.6-0.6c-1.1-0.4-1.7-1.1-1.7-2.3c0-0.7,0.3-1.3,0.8-1.6c0.6-0.4,1.3-0.6,2.4-0.6h1.1h18.9h1.1c1,0,1.8,0.2,2.4,0.6c0.6,0.4,0.8,0.9,0.8,1.6c0,1.2-0.6,1.9-1.7,2.3c-0.9,0.3-1.5,0.5-1.6,0.6c-0.2,0.1-0.3,0.2-0.5,0.5c-0.3,0.5-0.5,1.2-0.5,2.2v42.4c0,1,0.2,1.7,0.5,2.2c0.2,0.3,0.3,0.4,0.5,0.5c0.1,0.1,0.7,0.3,1.6,0.6c1.1,0.4,1.7,1.1,1.7,2.3c0,0.7-0.3,1.3-0.8,1.6c-0.6,0.4-1.3,0.6-2.4,0.6L88.5,133L88.5,133z"/><path fill="#000000" d="M122,75.2l8.4,23.8l3.7-12.8v14.1l-9.8,32.8H122l-16.4-48.8c-0.6-1.6-1.2-2.7-1.8-3.3c-0.4-0.4-1-0.6-1.9-0.8c-1.8-0.4-2.7-1.3-2.7-2.6c0-0.7,0.3-1.3,0.8-1.7c0.5-0.4,1.3-0.6,2.3-0.6H122L122,75.2z M105.5,94.7l4.5,12.8v12.7c0,1.3,0,2.2,0.1,2.8c0.1,0.6,0.3,1.2,0.7,1.9c0.6,1.3,1.4,2.2,2.5,2.8l1.6,1c1.1,0.6,1.6,1.4,1.6,2.2c0,1.4-1.1,2.2-3.2,2.2h-10.6c-2.1,0-3.2-0.7-3.2-2.1c0-0.5,0.1-0.8,0.3-1c0.2-0.2,0.6-0.5,1.1-0.8c3.1-1.7,4.7-4.6,4.7-8.8L105.5,94.7L105.5,94.7z M137.6,75.2h18.8h1.1c2.1,0,3.2,0.7,3.2,2.2c0,1.2-0.6,1.9-1.7,2.3c-0.9,0.3-1.5,0.5-1.6,0.6c-0.2,0.1-0.3,0.2-0.5,0.5c-0.3,0.5-0.5,1.2-0.5,2.2v42.4c0,1,0.2,1.7,0.5,2.2c0.2,0.3,0.3,0.4,0.5,0.5c0.1,0.1,0.7,0.3,1.6,0.6c1.1,0.4,1.7,1.1,1.7,2.3c0,1.5-1.1,2.2-3.2,2.2h-1.1h-18.9h-1.4c-1.3,0-2.2-0.2-2.8-0.6c-0.6-0.4-1-1-1-1.7c0-1.3,0.7-2,2-2.3c1.1-0.3,1.8-0.5,2-0.5c0.2-0.1,0.4-0.2,0.6-0.5c0.4-0.5,0.6-1.3,0.6-2.4L137.6,75.2L137.6,75.2z"/><path fill="#000000" d="M190.8,75.2V133h-18.9h-1.1c-1,0-1.8-0.2-2.4-0.6s-0.8-0.9-0.8-1.6c0-1.2,0.6-1.9,1.7-2.3c0.9-0.3,1.5-0.5,1.6-0.6c0.1-0.1,0.3-0.2,0.5-0.5c0.3-0.5,0.5-1.2,0.5-2.2V82.9c0-1-0.2-1.7-0.5-2.2c-0.2-0.3-0.3-0.4-0.5-0.5c-0.2-0.1-0.7-0.3-1.6-0.6c-1.1-0.4-1.7-1.1-1.7-2.3c0-0.7,0.3-1.3,0.8-1.6s1.3-0.6,2.4-0.6h1.1L190.8,75.2L190.8,75.2z M194.3,106v-4.9c1.6-0.8,2.8-1.7,3.6-2.6c0.8-0.9,1.4-2.2,1.7-3.7c0.2-1.1,0.5-1.8,0.9-2.2c0.4-0.4,0.9-0.6,1.6-0.6c0.9,0,1.5,0.4,1.9,1.1c0.2,0.4,0.3,1.2,0.3,2.5v16.1c0,1.3-0.1,2.2-0.5,2.7c-0.3,0.5-0.8,0.8-1.6,0.8c-0.6,0-1.2-0.2-1.5-0.6c-0.4-0.4-0.7-1.1-0.9-2c-0.5-2-1.2-3.4-2-4.5C196.9,107.1,195.7,106.4,194.3,106z M194.5,75.2h17.1v15c0,0.9-0.2,1.5-0.5,1.9c-0.3,0.4-0.9,0.6-1.6,0.6c-0.6,0-1.1-0.1-1.3-0.4c-0.3-0.3-0.6-0.8-0.8-1.6c-1.1-3.3-2.6-5.8-4.7-7.5c-2.1-1.7-4.8-2.7-8.1-3.1L194.5,75.2L194.5,75.2z M194.6,133v-4.6c1.8-0.3,3.3-0.7,4.6-1.2s2.4-1.3,3.6-2.3c1.2-1,2.2-2.1,2.9-3.3c0.7-1.1,1.4-2.6,2-4.4c0.3-0.9,0.6-1.5,1-1.9c0.3-0.3,0.8-0.5,1.4-0.5c0.8,0,1.3,0.2,1.7,0.7c0.3,0.5,0.5,1.3,0.5,2.4v15L194.6,133L194.6,133z"/><path fill="#000000" d="M241.7,133h-18.9h-1.1c-1,0-1.8-0.2-2.4-0.6c-0.6-0.4-0.8-0.9-0.8-1.6c0-1.2,0.6-1.9,1.7-2.3c0.9-0.3,1.5-0.5,1.6-0.6c0.1-0.1,0.3-0.2,0.5-0.5c0.3-0.5,0.5-1.2,0.5-2.2V82.9c0-1-0.2-1.7-0.5-2.2c-0.2-0.3-0.3-0.4-0.5-0.5c-0.2-0.1-0.7-0.3-1.6-0.6c-1.1-0.4-1.7-1.1-1.7-2.3c0-0.7,0.3-1.3,0.8-1.6c0.6-0.4,1.3-0.6,2.4-0.6h1.1h18.9h1.1c1,0,1.8,0.2,2.4,0.6c0.6,0.4,0.8,0.9,0.8,1.6c0,1.2-0.6,1.9-1.7,2.3c-0.9,0.3-1.5,0.5-1.6,0.6c-0.2,0.1-0.3,0.2-0.5,0.5c-0.3,0.5-0.5,1.2-0.5,2.2v42.4c0,1,0.2,1.7,0.5,2.2c0.2,0.3,0.3,0.4,0.5,0.5c0.1,0.1,0.7,0.3,1.6,0.6c1.1,0.4,1.7,1.1,1.7,2.3c0,0.7-0.3,1.3-0.8,1.6c-0.6,0.4-1.3,0.6-2.4,0.6L241.7,133L241.7,133z"/><path fill="#000000" d="M160.4,143v24.1c0,6.1-4.9,11-11,11H46.1c-6.1,0-11-4.9-11-11V43.8c0-6.1,4.9-11,11-11h103.3c6.1,0,11,4.9,11,11v19.7h25.1V27.7c0-11.1-9-20.1-20.1-20.1H30.1C19,7.7,10,16.6,10,27.7v200.6c0,11.1,9,20.1,20.1,20.1h135.4c11.1,0,20.1-9,20.1-20.1V143H160.4z M97.8,223.3c-6.9,0-12.5-5.6-12.5-12.5s5.6-12.5,12.5-12.5c6.9,0,12.5,5.6,12.5,12.5S104.7,223.3,97.8,223.3z"/></g></g>
</svg>