<?xml version="1.0"?>
<svg width="512" height="512" xmlns="http://www.w3.org/2000/svg" xmlns:svg="http://www.w3.org/2000/svg" enable-background="new 0 0 512 512" version="1.1" xml:space="preserve">
 <g class="layer">
  <title>Layer 1</title>
  <g id="svg_1">
   <path d="m256,0c-141.16,0 -256,114.84 -256,256s114.84,256 256,256s256,-114.84 256,-256s-114.84,-256 -256,-256zm0,451.36c-107.72,0 -195.36,-87.64 -195.36,-195.36c0,-107.72 87.64,-195.36 195.36,-195.36c107.72,0 195.36,87.64 195.36,195.36c0,107.72 -87.64,195.36 -195.36,195.36z" fill="#ff7f00" id="svg_2"/>
   <path d="m387.62,244.75l-110.05,0l0,-133.01c0,-13.37 -10.87,-24.25 -24.24,-24.25s-24.25,10.88 -24.25,24.25l0,157.26c0,13.37 10.88,24.24 24.25,24.24l134.29,0c13.37,0 24.24,-10.87 24.24,-24.24c0.01,-13.37 -10.87,-24.25 -24.24,-24.25z" fill="#ff7f00" id="svg_3"/>
  </g>
 </g>
</svg>