<?xml version="1.0"?>
<svg width="512" height="512" xmlns="http://www.w3.org/2000/svg" xmlns:svg="http://www.w3.org/2000/svg" xmlns:xlink="http://www.w3.org/1999/xlink" enable-background="new 0 0 512 512" version="1.1" xml:space="preserve">
 <g class="layer">
  <title>Layer 1</title>
  <g id="svg_1" transform="matrix(1 0 0 1 0 0)">
   <path d="m0,48l0,332l512,0l0,-332l-512,0zm480,306.46l-448,0l0,-280.92l448,0l0,280.92zm-128,-217.08c0,21.16 21.49,38.31 48,38.31s48,-17.15 48,-38.31s-21.49,-38.31 -48,-38.31s-48,17.15 -48,38.31zm96,191.54l-384,0l96,-204.31l128,127.69l64,-38.31l96,114.92l0,0.01z" fill="#bfbfbf" id="svg_2"/>
  </g>
  <rect fill="#ffffff" height="281" id="svg_6" stroke="#000000" transform="matrix(1 0 0 1 0 0)" width="467" x="22.5" y="74"/>
  <use fill="#7f7f7f" id="svg_5" transform="matrix(0.333333 0 0 0.333333 0 0)" x="24" xlink:href="#svg_4" y="237"/>
  <rect fill="none" id="svg_9" stroke="#000000" transform="rotate(-80.3266 -482.5 106)" x="-482.5" y="106"/>
  <rect fill="none" id="svg_10" stroke="#000000" x="-556.5" y="116"/>
  <path d="m217.5,167l246,0l0,10l-246,0l0,-10z" fill="#bfbfbf" id="svg_11" stroke="#000000" transform="matrix(1 0 0 1 0 0)"/>
  <path d="m217.5,192l246,0l0,10l-246,0l0,-10z" fill="#bfbfbf" id="svg_12" stroke="#000000"/>
  <path d="m217.5,216l246,0l0,10l-246,0l0,-10z" fill="#bfbfbf" id="svg_13" stroke="#000000" transform="matrix(1 0 0 1 0 0)"/>
  <path d="m217.5,238l246,0l0,10l-246,0l0,-10z" fill="#bfbfbf" id="svg_14" stroke="#000000"/>
  <path d="m51.5,279l416,0l0,10l-416,0l0,-10z" fill="#bfbfbf" id="svg_15" stroke="#000000"/>
  <path d="m51.5,303l416,0l0,10l-416,0l0,-10z" fill="#bfbfbf" id="svg_16" stroke="#000000"/>
  <path d="m51.5,328l416,0l0,10l-416,0l0,-10z" fill="#bfbfbf" id="svg_17" stroke="#000000" transform="matrix(1 0 0 1 0 0)"/>
 </g>
 <defs>
  <symbol height="512px" id="svg_4" viewBox="0 0 512 512" width="512px" xmlns="http://www.w3.org/2000/svg" xmlns:xlink="http://www.w3.org/1999/xlink">
   <path d="m381.05,345.47l-66.32,-33.15c-6.25,-3.13 -10.14,-9.42 -10.14,-16.42l0,-23.47c1.59,-1.94 3.27,-4.16 4.99,-6.6c8.6,-12.15 15.5,-25.67 20.51,-40.26c9.79,-4.49 16.15,-14.17 16.15,-25.1l0,-27.77c0,-6.69 -2.5,-13.16 -6.94,-18.22l0,-36.93c0.39,-3.81 1.92,-26.54 -14.52,-45.29c-14.26,-16.26 -37.4,-24.51 -68.78,-24.51c-31.38,0 -54.52,8.25 -68.78,24.5c-16.44,18.75 -14.91,41.49 -14.52,45.31l0,36.92c-4.44,5.06 -6.94,11.54 -6.94,18.22l0,27.77c0,8.45 3.84,16.32 10.39,21.58c6.36,25.18 19.67,44.15 24.32,50.24l0,22.97c0,6.72 -3.67,12.88 -9.56,16.1l-61.93,33.78c-20.14,10.99 -32.64,32.05 -32.64,54.98l0,22.48c0,32.95 104.44,41.65 159.66,41.65c55.22,0 159.66,-8.7 159.66,-41.65l0,-21.12c0,-23.87 -13.27,-45.33 -34.61,-56.01z" fill="#ECECEC" id="svg_3"/>
  </symbol>
 </defs>
</svg>